<svg xmlns="http://www.w3.org/2000/svg" width="18" height="18" viewBox="0 0 18 18">
    <g fill="none" fill-rule="evenodd">
        <rect width="18" height="18" fill="#46B688" fill-rule="nonzero" rx="2"/>
        <path fill="#FFF" d="M13.957 5.495c.029-.03.043-.078.043-.14 0-.093-.014-.156-.043-.187L12.62 4.047c-.029-.031-.087-.047-.173-.047-.057 0-.1.016-.129.047l-4.785 6.682c-1.264-1.308-1.91-1.978-1.94-2.01-.085-.093-.172-.14-.258-.14-.029 0-.086.047-.172.14l-1.12 1.216c-.03.03-.044.093-.044.186 0 .063.014.11.043.14l.086.047c2.242 2.337 3.377 3.52 3.405 3.552.087.093.159.14.216.14.057 0 .13-.047.216-.14l5.99-8.365z"/>
    </g>
</svg>
